<?xml version="1.0" encoding="UTF-8"?>
<svg id="Camada_2" data-name="Camada 2" xmlns="http://www.w3.org/2000/svg" xmlns:xlink="http://www.w3.org/1999/xlink" viewBox="0 0 494.95 494.95">
  <defs>
    <style>
      .cls-1 {
        fill: #002732;
      }

      .cls-1, .cls-2, .cls-3, .cls-4, .cls-5, .cls-6 {
        stroke-width: 0px;
      }

      .cls-2 {
        fill: #ffd4ae;
      }

      .cls-3 {
        fill: #f3c08b;
      }

      .cls-4 {
        fill: #ecbc8b;
      }

      .cls-5 {
        fill: #e29a59;
      }

      .cls-6 {
        fill: url(#Gradiente_sem_nome_6894);
      }
    </style>
    <linearGradient id="Gradiente_sem_nome_6894" data-name="Gradiente sem nome 6894" x1="247.48" y1="7.42" x2="247.48" y2="487.54" gradientUnits="userSpaceOnUse">
      <stop offset=".24" stop-color="#00404f"/>
      <stop offset=".45" stop-color="#014651"/>
      <stop offset=".49" stop-color="#00424e"/>
      <stop offset=".71" stop-color="#003442"/>
      <stop offset=".89" stop-color="#00303f"/>
    </linearGradient>
  </defs>
  <path class="cls-2" d="M247.48,0C110.8,0,0,110.8,0,247.48c0,64.51,24.69,123.25,65.13,167.3,1.15,1.25,2.31,2.5,3.49,3.73,37.26,38.95,87.12,65.74,143.03,73.85,2.87.42,5.75.78,8.64,1.1,8.93.98,18,1.49,27.18,1.49,136.68,0,247.48-110.8,247.48-247.48S384.16,0,247.48,0Z"/>
  <g>
    <path class="cls-6" d="M247.48,7.42C114.9,7.42,7.42,114.9,7.42,247.48c0,62.58,23.95,119.56,63.18,162.29,7.08-4.12,14.16-8.25,21.24-12.38,14.61-8.53,29.2-17.07,43.83-25.56,1.72-1,2.69-2.04,2.74-4.27.26-11.36.76-22.71,1.13-34.06.75-23.08,1.47-46.16,2.19-69.24.07-2.22.09-4.42-.23-6.64-1.18-8.31-2.23-16.63-3.28-24.96-1.44-11.39-2.84-22.78-4.25-34.16-1.38-11.16-1.77-22.41-2.04-33.62-.17-7.25.65-14.56,1.48-21.79,1.24-10.79,2.87-21.53,4.39-32.28.29-2.06.48-4.19,1.73-5.99.85-1.23,1.68-2.49,3.38-2.6,7.51-.5,14.8,1,19.32,8.87,2.63,4.58,3.87,9.57,4.27,14.81,1.13,14.82.16,29.62-.56,44.42-.1,2.11-.09,4.14.44,6.23,2.12,8.39,3.24,16.96,4.56,25.49.66,4.26.55,8.66,2.03,12.76,2.76,7.66,5.26,15.41,7.71,23.18.3.95.19,2.25,1.43,2.79,1.01-.87,1.41-2.07,1.98-3.14,8.43-16.07,17.04-32.04,25.2-48.25,3.62-7.18,7.51-14.42,13.57-19.73,4.58-4.01,6.82-8.74,8.28-14.29.91-3.45,2.24-6.79,3.37-10.19.78-2.35,1.82-4.59,3.07-6.73,1.84-3.16,4.23-5.7,7.57-7.38,3.64-1.83,7.14-3.93,10.73-5.84,1.21-.64,1.8-1.43,1.83-2.88.03-2.09.24-4.19.56-6.26,1.28-8.34,4.18-15.85,10.07-22.21,14.69-15.86,29.18-31.89,43.71-47.89,1.54-1.69,3.28-2.4,5.55-2.33,6.88.2,12.05,4.19,14.05,11.07,1.58,5.44.99,10.75-1.06,15.95-3.59,9.09-8.91,17.03-15.77,23.97-1.19,1.21-2.55,2.29-3.48,3.89,1.04.32,1.85-.01,2.69-.19,14.85-3.13,29.7-6.27,44.56-9.38,3.32-.7,4.7-.05,6.35,2.83.75,1.3,1.25,2.73,1.41,4.19,1.1,10.14-1.16,18.93-10.28,24.85-1.65,1.07-3.34,2.12-5.1,3.01-5.65,2.85-11.65,4.73-17.82,6.05-1.69.36-3.39.6-4.9,1.56-8.46,5.35-17.3,10.02-26.35,14.29-2.15,1.01-3.02,2.29-2.53,4.57.16.72.19,1.47.19,2.21,0,1.51.75,1.88,2.13,1.64,3.16-.55,6.36-.92,9.49-1.58,1.88-.39,3.62-.17,5.47.13,16.82,2.76,32.43,9.38,48.36,14.97,1.97.69,2.73,1.94,2.55,3.92-.09.98-.12,1.98-.27,2.95-.75,4.83-.7,5.44.92,9.92,2.04,5.67,1.82,11.29.16,17.07-5.82,20.24-8.7,41.03-10.48,61.94-1.59,18.7-1.87,37.49-2.31,56.25-.3,12.84-.46,25.69-.65,38.53-.08,5.34-.82,10.57-2.14,15.74-3.67,14.35-10.77,26.98-19.37,38.87-9.99,13.8-22.13,24.75-37.44,32.87-25.03,13.28-49.95,26.78-74.84,40.34,8.66.95,17.46,1.45,26.37,1.45,132.58,0,240.06-107.48,240.06-240.06S380.06,7.42,247.48,7.42Z"/>
    <path class="cls-1" d="M313.51,187.71c-3.12-.76-6.01-.51-9.05.39-3.21.95-3.42.37-3.23,4.51.72,16.4.76,32.81.8,49.23.03,11.48.6,22.94,2.23,34.32.59,4.13,1.21,8.26,3.53,12.27,1.32-5.12,2.67-10.24,3.96-15.37,1.44-5.73,3.6-11.3,4.13-17.24.9-10.07,1.72-20.16,2.56-30.23.34-4.06.5-8.13.99-12.17.82-6.8,3.27-13.13,5.98-19.37.52-1.19,1.56-2.27,1.16-3.81-4.37-.83-8.76-1.49-13.06-2.53Z"/>
    <path class="cls-4" d="M333.39,412.88c8.6-11.89,15.7-24.52,19.37-38.87,1.32-5.17,2.07-10.4,2.14-15.74.19-12.84.35-25.69.65-38.53.44-18.76.72-37.55,2.31-56.25,1.78-20.91,4.66-41.7,10.48-61.94,1.66-5.78,1.89-11.4-.16-17.07-1.61-4.48-1.67-5.09-.92-9.92.15-.97.18-1.97.27-2.95.18-1.98-.58-3.23-2.55-3.92-15.93-5.59-31.54-12.21-48.36-14.97-1.85-.3-3.59-.52-5.47-.13-3.14.66-6.33,1.03-9.49,1.58-1.38.24-2.14-.13-2.13-1.64,0-.74-.03-1.49-.19-2.21-.49-2.29.38-3.56,2.53-4.57,9.05-4.27,17.89-8.94,26.35-14.29,1.51-.96,3.21-1.2,4.9-1.56,6.18-1.32,12.17-3.2,17.82-6.05,1.76-.89,3.44-1.94,5.1-3.01,9.12-5.92,11.38-14.71,10.28-24.85-.16-1.46-.66-2.89-1.41-4.19-1.65-2.88-3.02-3.53-6.35-2.83-14.86,3.11-29.71,6.24-44.56,9.38-.84.18-1.65.51-2.69.19.93-1.6,2.29-2.68,3.48-3.89,6.85-6.94,12.18-14.89,15.77-23.97,2.06-5.21,2.64-10.52,1.06-15.95-2-6.88-7.17-10.87-14.05-11.07-2.27-.07-4.02.64-5.55,2.33-14.54,15.99-29.03,32.03-43.71,47.89-5.89,6.36-8.79,13.87-10.07,22.21-.32,2.07-.53,4.17-.56,6.26-.02,1.44-.62,2.23-1.83,2.88-3.6,1.91-7.1,4.01-10.73,5.84-3.34,1.68-5.73,4.22-7.57,7.38-1.24,2.14-2.29,4.37-3.07,6.73-1.12,3.4-2.46,6.74-3.37,10.19-1.46,5.55-3.7,10.28-8.28,14.29-6.07,5.31-9.95,12.56-13.57,19.73-8.17,16.21-16.77,32.18-25.2,48.25-.56,1.07-.96,2.27-1.98,3.14-1.24-.54-1.13-1.84-1.43-2.79-2.45-7.77-4.95-15.51-7.71-23.18-1.48-4.1-1.37-8.5-2.03-12.76-1.32-8.53-2.44-17.1-4.56-25.49-.53-2.09-.54-4.12-.44-6.23.72-14.8,1.69-29.59.56-44.42-.4-5.25-1.64-10.23-4.27-14.81-4.52-7.88-11.81-9.38-19.32-8.87-1.7.11-2.53,1.37-3.38,2.6-1.25,1.8-1.44,3.94-1.73,5.99-1.52,10.75-3.15,21.49-4.39,32.28-.83,7.23-1.65,14.54-1.48,21.79.27,11.22.66,22.46,2.04,33.62,1.41,11.39,2.81,22.78,4.25,34.16,1.05,8.32,2.1,16.65,3.28,24.96.32,2.23.3,4.43.23,6.64-.72,23.08-1.44,46.16-2.19,69.24-.37,11.35-.87,22.7-1.13,34.06-.05,2.22-1.01,3.27-2.74,4.27-14.63,8.49-29.22,17.04-43.83,25.56-7.08,4.13-14.16,8.26-21.24,12.38,1.12,1.22,2.24,2.43,3.38,3.62,15.24-8.91,30.49-17.8,45.74-26.7,5.01-2.93,10.01-5.88,15.04-8.78,2.81-1.62,3.37-1.33,3.41,1.96.09,8.31,1.04,16.5,3.04,24.57,1.94,7.85,4.8,15.31,9.61,21.91,1.24,1.71,2.7,3.22,4.23,4.65.91.85,1.98,1.08,3,.22,1.12-.94,1.12-2.12.42-3.33-.18-.32-.43-.61-.68-.88-8.63-9.48-11.78-21.19-13.62-33.43-1.54-10.2-.97-20.46-.74-30.7.4-18.02.9-36.04,1.6-54.05.58-14.8.97-29.61,1.43-44.41.23-7.34-1.11-14.51-1.99-21.73-1.82-14.94-3.56-29.9-5.58-44.81-1.32-9.69-1.34-19.45-2-29.17-.55-8.02.84-16.01,1.33-24.01.09-1.48.88-2.25,2.26-2.48,3.2-.53,4.77-2.84,6.02-5.49,1.06-2.25,1.76-4.61,2.12-7.07.66-4.52,1.34-9.03,1.99-13.55.09-.61.15-1.23.17-1.84.06-1.47-.26-2.77-1.92-3.15-1.34-.31-2.62.73-2.95,2.66-.68,4.02-1.21,8.06-1.75,12.09-.33,2.46-.66,4.91-1.88,7.12-.41.73-.81,1.76-1.83,1.52-1.12-.26-.83-1.4-.73-2.19.34-2.82.8-5.62,1.19-8.43.6-4.28,1.18-8.56,1.77-12.84.5-3.61,1.61-4.54,5.18-4,4.51.68,8.09,2.79,10.32,6.97,2.57,4.82,3.47,10.04,3.61,15.37.27,10.24.49,20.49-.4,30.73-.19,2.21-.07,4.45-.22,6.66-.17,2.5-.62,2.97-3.14,3.21-1.59.15-3.21.08-4.81.08-.74,0-1.48-.1-2.22-.13-1.47-.05-2.83.23-3.04,1.97-.22,1.73,1.11,2.31,2.45,2.75,1.92.64,3.91.5,5.88.49,4.76-.03,4.76-.05,5.76,4.57,2.27,10.51,3.83,21.13,5.08,31.8.2,1.74.56,3.4,1.18,5.03,4.89,12.95,8.6,26.29,12.67,39.5,1.09,3.53,1.01,3.57-2.6,5.05-1.94.8-3.92,1.51-5.86,2.32-.9.38-1.81.82-2.59,1.4-.84.62-1.26,1.54-.8,2.61.51,1.18,1.48,1.64,2.7,1.45.72-.11,1.45-.35,2.12-.65,18.47-8.1,37.99-12.34,57.74-15.81,11.93-2.09,23.56-5.54,35.43-7.91,4.96-.99,9.95-1.84,14.93-2.8,2.42-.47,2.89-1,2.64-2.71-.29-1.95-1.14-2.58-3.43-2.25-2.32.34-4.61.91-6.92,1.25-3.31.5-3.42.38-3.5-2.82-.04-1.85-.02-3.71,0-5.56.06-10.13-.28-20.24-1.16-30.33-.17-1.98.5-3,2.41-3.45,6.85-1.61,13.68-3.33,20.54-4.89,2.89-.66,3.37-.15,3.57,2.96.65,9.99.83,19.98.71,29.99-.14,12.23.15,24.45.8,36.66.41,7.76,1.18,15.51,2.88,23.13.78,3.5,1.77,6.94,3.56,10.09,2.12,3.72,1.82,5.41-1.64,7.71-5.5,3.65-10.29,8.05-14.44,13.18-8.85,10.95-14.45,23.49-18.22,36.95-.16.59-.26,1.21-.27,1.82,0,1.09.5,1.93,1.56,2.27,1.21.39,2.29,0,2.82-1.12.57-1.22.9-2.55,1.3-3.85,3.83-12.53,9.39-24.14,17.91-34.22,2.62-3.1,5.53-5.87,8.8-8.25.26.15.51.31.77.46-.6,3.38-1.23,6.75-1.79,10.13-.6,3.65-1.18,7.31-1.69,10.97-.17,1.22-.18,2.47-.11,3.7.12,2.06.97,3.08,2.43,3.13,1.5.04,2.52-.96,2.53-2.97.04-7.1,1.6-13.97,3.06-20.85,3.17-14.86,6.84-29.6,10.88-44.24.03-.12.07-.24.1-.36,1.03-3.48,1.04-3.51,4.04-1.69,3.09,1.88,6.29,3.43,9.94,3.83.85.09,1.73.19,2.58.1,1.48-.16,2.68-.86,2.68-2.52,0-1.71-1.24-2.33-2.75-2.34-4.44-.01-8.04-2.07-11.52-4.54-2.03-1.44-2.68-3.2-2.4-5.73.82-7.48,1.24-15.01,2.06-22.49.91-8.33.68-16.79,2.8-24.98,1.31-5.04,3.32-9.81,5.54-14.51.86-1.82,1.91-2.41,4.01-2.28,4.67.3,9.36.39,14.05-.26,4.27-.59,8.12-1.95,11.53-4.63,1.89-1.49,2.36-1.32,3.05.9,1.03,3.34,1.53,6.69.47,10.18-3.57,11.85-5.77,23.99-7.67,36.2-1.99,12.81-3.65,25.63-4.25,38.61-.69,14.8-1.08,29.6-1.58,44.41-.41,12.22-.59,24.44-.53,36.66.06,14.06-3.53,27.08-9.99,39.43-6.52,12.47-14.94,23.52-24.77,33.55-4.54,4.63-9.68,8.41-15.36,11.49-27.58,14.94-55.16,29.89-82.72,44.86-1.55.84-3.1,1.69-4.65,2.53,2.78.4,5.57.76,8.38,1.07,24.89-13.56,49.8-27.06,74.84-40.34,15.31-8.12,27.45-19.07,37.44-32.87ZM262.94,118.67c1.05-7.67,3-14.98,8.45-20.93,6.34-6.91,12.55-13.95,18.85-20.9,2.54-2.8,2.62-2.88,5.97-1.45,5.19,2.22,9.61,1.16,13.55-2.7,3.8-3.72,7.28-7.73,10.69-11.8.47-.56.93-1.17,1.25-1.82.46-.98.33-1.96-.54-2.68-.86-.72-1.91-.77-2.73-.09-1.04.85-1.97,1.86-2.84,2.9-2.94,3.5-6.23,6.68-9.42,9.95-1.95,2.01-4.19,2.41-6.78,1.68-2.35-.66-2.54-1.08-.93-2.85,3.07-3.39,6.17-6.73,9.3-10.07,2.28-2.43,4.73-4.71,6.7-7.41,1.45-1.99,3.27-2.43,5.53-1.67,3.99,1.34,6.37,4.09,7.15,8.2.23,1.21.25,2.45.45,4.43.17,3.34-1.29,7.02-2.95,10.61-3.47,7.47-8.33,13.97-14.05,19.87-2.48,2.55-5.38,4.76-6.75,8.24-.43,1.08-1.55,1.54-2.55,2.04-11.72,5.84-23.43,11.68-35.15,17.52-.33.17-.66.34-1.01.46-1.81.66-2.43.33-2.18-1.51ZM234.65,160.49c1.73-5.41,3.41-10.84,5.41-16.15,1.6-4.26,4.41-7.45,8.58-9.76,18.37-10.16,37.35-19.1,56.13-28.46,4.28-2.13,8.99-2.57,13.49-3.81,1.55-.43,2.27.32,2.78,1.64.85,2.19,1.92,4.3,2.61,6.53,1.01,3.27,3.4,4.34,6.45,4.54,3.59.22,7.15-.06,10.68-.73,3.89-.74,7.72-1.65,11.44-3.01.92-.34,1.84-.74,2.64-1.29.87-.6,1.26-1.53.83-2.6-.41-1.05-1.29-1.57-2.33-1.48-.96.09-1.9.46-2.83.78-5.87,2.02-11.85,3.35-18.11,3.38-2.55,0-4.04-.74-5.02-3.26-2.37-6.09-2.49-6.04,3.84-7.34,8.34-1.72,16.68-3.45,25.02-5.15,4.3-.87,5.15-.19,5.48,4.26.03.37,0,.74,0,1.11.37,8.97-4.03,14.96-11.74,18.96-5.96,3.09-12.23,5.29-18.82,6.53-2.22.42-4.21,1.22-6.15,2.39-12.16,7.35-24.73,13.92-37.86,19.38-2.74,1.14-5.59,1.92-8.49,2.56-4.35.96-7.75-.51-10.54-3.77-.8-.94-1.5-1.96-2.31-2.9-1.01-1.17-2.3-1.58-3.59-.58-1.16.9-1.02,2.18-.33,3.35,1.65,2.81,3.9,5.07,6.53,6.98.93.68,2.56.94,2.11,2.61-.44,1.64-1.45,2.78-3.33,3-5.02.58-10.05,1.15-15.05,1.88-5.25.76-10.47,1.72-15.71,2.53-2.2.34-2.49.04-1.8-2.1ZM292.38,155.21c-4.84.82-9.71,1.44-14.18,2.08-.99-.08-1.74.1-2-.6-.3-.83.3-1.4.94-1.78.41-.25.91-.37,1.38-.46,4.37-.8,8.55-2.23,12.67-3.85,1.18-.46,2.66-1.37,3.28.74.59,2.01-.13,3.54-2.1,3.88ZM265.75,236.86c.02,1.91-.75,2.94-2.66,3.34-10.26,2.18-20.38,5-30.7,6.92-.61.11-1.21.26-1.82.34-1.16.15-1.65-.34-1.27-1.5.19-.58.47-1.14.73-1.7,6.27-13.43,12.57-26.83,18.76-40.29.92-2.01,2.2-3.11,4.31-3.55,2.54-.52,5.04-1.22,7.56-1.81,3.75-.87,4.17-.59,4.34,3.09.34,7.27,1.03,14.53.74,21.83,0,4.45-.04,8.89.02,13.34ZM325.41,194.05c-2.71,6.24-5.16,12.57-5.98,19.37-.49,4.04-.65,8.11-.99,12.17-.84,10.08-1.66,20.16-2.56,30.23-.53,5.94-2.69,11.51-4.13,17.24-1.29,5.13-2.64,10.25-3.96,15.37-2.32-4.01-2.94-8.15-3.53-12.27-1.63-11.38-2.2-22.84-2.23-34.32-.04-16.41-.08-32.83-.8-49.23-.18-4.13.02-3.56,3.23-4.51,3.04-.9,5.92-1.15,9.05-.39,4.3,1.04,8.69,1.7,13.06,2.53.4,1.54-.64,2.62-1.16,3.81ZM362.27,174.23c-1.41,5.77-4.82,9.62-10.62,11.19-3.63.98-7.34.81-9.36.79-11.02.11-20.09-1.79-29.14-3.72-2.74-.59-5.27-.52-7.99.16-13.89,3.47-27.82,6.77-41.73,10.16-4.92,1.2-9.85,2.34-14.71,3.73-5.39,1.54-11.05-1.18-13.09-6.79-.34-.93-.65-1.87-1.1-2.75-.55-1.08-1.45-1.72-2.72-1.36-1.27.36-1.65,1.38-1.66,2.58-.01,1.13.33,2.19.76,3.22,1.97,4.69,5.25,7.96,10.12,9.64,3.1,1.06,3.09,1.13,1.71,4.12-6.32,13.66-12.68,27.32-18.96,41-.91,1.98-2.22,3.1-4.37,3.49-10.32,1.92-20.56,4.18-30.51,7.6-1.53.53-2.31.09-2.72-1.43-.41-1.55-.86-3.1-1.44-4.59-.78-2-.52-3.76.5-5.64,4.34-8.03,8.51-16.16,12.87-24.19,5.18-9.55,10.06-19.25,15-28.92,3.31-6.49,7.18-12.66,11.86-18.3,2.87-3.45,6.28-5.68,10.82-6.49,11.67-2.07,23.36-3.92,35.2-4.71,4.67-.31,9.31-1.11,13.96-1.69.86-.11,1.71-.23,2.57-.32,1.63-.17,2.31.47,1.92,2.15-.3,1.32-.62,2.66-.7,4-.12,2.12.64,3.25,2.08,3.33,1.76.1,2.25-1.14,2.62-2.55.5-1.91,1.04-3.8,1.61-5.69.25-.82.56-1.65,1.33-2.17.54-.37,1.17-.53,1.75-.23.67.35.54,1.01.38,1.62-.44,1.67-.9,3.33-1.3,5.01-.35,1.47-.28,2.94.17,4.39.44,1.4,1.18,2.56,2.87,2.26,1.47-.26,1.95-1.45,1.85-2.8-.27-3.44.64-6.58,2.17-9.62.79-1.56,1.83-2.41,3.6-2.78,3.32-.69,6.53-.63,9.89-.07,12.63,2.12,24.49,6.72,36.43,11.06,2.2.8,4.4,1.62,6.61,2.4,1.42.51,1.81,1.42,1.45,2.89Z"/>
    <path class="cls-5" d="M300.09,437.64c5.69-3.08,10.82-6.86,15.36-11.49,9.83-10.03,18.25-21.08,24.77-33.55,6.47-12.36,10.05-25.37,9.99-39.43-.05-12.22.13-24.44.53-36.66.49-14.8.89-29.61,1.58-44.41.6-12.98,2.25-25.8,4.25-38.61,1.9-12.21,4.11-24.35,7.67-36.2,1.05-3.5.56-6.85-.47-10.18-.69-2.22-1.16-2.39-3.05-.9-3.41,2.68-7.25,4.04-11.53,4.63-4.69.65-9.38.57-14.05.26-2.1-.14-3.15.45-4.01,2.28-2.22,4.7-4.23,9.47-5.54,14.51-2.13,8.19-1.9,16.65-2.8,24.98-.81,7.48-1.24,15.01-2.06,22.49-.28,2.53.37,4.28,2.4,5.73,3.48,2.47,7.07,4.53,11.52,4.54,1.51,0,2.75.62,2.75,2.34,0,1.66-1.2,2.36-2.68,2.52-.85.09-1.72,0-2.58-.1-3.65-.4-6.85-1.95-9.94-3.83-2.99-1.82-3.01-1.8-4.04,1.69-.03.12-.07.24-.1.36-4.04,14.65-7.71,29.38-10.88,44.24-1.47,6.87-3.03,13.75-3.06,20.85-.01,2.01-1.03,3.02-2.53,2.97-1.46-.04-2.31-1.06-2.43-3.13-.07-1.23-.06-2.48.11-3.7.51-3.67,1.09-7.32,1.69-10.97.56-3.38,1.19-6.75,1.79-10.13-.26-.15-.51-.31-.77-.46-3.26,2.38-6.17,5.15-8.8,8.25-8.52,10.08-14.08,21.69-17.91,34.22-.4,1.29-.72,2.63-1.3,3.85-.53,1.12-1.61,1.51-2.82,1.12-1.06-.34-1.57-1.18-1.56-2.27,0-.61.1-1.23.27-1.82,3.76-13.45,9.37-25.99,18.22-36.95,4.15-5.13,8.94-9.53,14.44-13.18,3.46-2.29,3.76-3.98,1.64-7.71-1.8-3.15-2.78-6.59-3.56-10.09-1.71-7.61-2.47-15.36-2.88-23.13-.65-12.21-.94-24.43-.8-36.66.12-10-.07-20-.71-29.99-.2-3.11-.69-3.62-3.57-2.96-6.86,1.57-13.69,3.28-20.54,4.89-1.91.45-2.58,1.46-2.41,3.45.88,10.09,1.23,20.2,1.16,30.33-.01,1.85-.04,3.71,0,5.56.07,3.2.19,3.32,3.5,2.82,2.32-.35,4.6-.92,6.92-1.25,2.29-.33,3.15.3,3.43,2.25.25,1.7-.22,2.24-2.64,2.71-4.97.96-9.96,1.8-14.93,2.8-11.87,2.37-23.5,5.81-35.43,7.91-19.75,3.47-39.27,7.7-57.74,15.81-.67.3-1.4.54-2.12.65-1.22.19-2.2-.27-2.7-1.45-.46-1.07-.04-1.99.8-2.61.78-.58,1.69-1.02,2.59-1.4,1.94-.81,3.91-1.52,5.86-2.32,3.61-1.48,3.69-1.52,2.6-5.05-4.07-13.21-7.78-26.55-12.67-39.5-.61-1.63-.97-3.29-1.18-5.03-1.25-10.67-2.81-21.29-5.08-31.8-1-4.62-.99-4.6-5.76-4.57-1.97.01-3.96.15-5.88-.49-1.34-.45-2.67-1.02-2.45-2.75.22-1.74,1.58-2.02,3.04-1.97.74.02,1.48.12,2.22.13,1.6,0,3.22.07,4.81-.08,2.51-.24,2.97-.71,3.14-3.21.15-2.22.03-4.45.22-6.66.88-10.23.66-20.48.4-30.73-.14-5.33-1.04-10.55-3.61-15.37-2.23-4.18-5.81-6.29-10.32-6.97-3.57-.54-4.68.39-5.18,4-.6,4.28-1.17,8.56-1.77,12.84-.39,2.81-.85,5.61-1.19,8.43-.1.79-.39,1.92.73,2.19,1.02.24,1.43-.79,1.83-1.52,1.22-2.21,1.55-4.66,1.88-7.12.54-4.04,1.07-8.08,1.75-12.09.33-1.93,1.61-2.97,2.95-2.66,1.65.39,1.97,1.69,1.92,3.15-.02.62-.08,1.23-.17,1.84-.66,4.52-1.33,9.03-1.99,13.55-.36,2.46-1.06,4.82-2.12,7.07-1.25,2.64-2.82,4.96-6.02,5.49-1.38.23-2.17,1-2.26,2.48-.5,8-1.88,15.99-1.33,24.01.66,9.72.69,19.48,2,29.17,2.02,14.92,3.76,29.87,5.58,44.81.88,7.22,2.22,14.39,1.99,21.73-.46,14.81-.85,29.61-1.43,44.41-.7,18.01-1.2,36.03-1.6,54.05-.23,10.24-.79,20.5.74,30.7,1.84,12.24,4.99,23.95,13.62,33.43.25.27.49.56.68.88.7,1.21.7,2.39-.42,3.33-1.02.86-2.09.63-3-.22-1.54-1.43-2.99-2.94-4.23-4.65-4.81-6.6-7.68-14.05-9.61-21.91-1.99-8.06-2.95-16.26-3.04-24.57-.03-3.28-.6-3.57-3.41-1.96-5.03,2.9-10.03,5.85-15.04,8.78-15.25,8.9-30.5,17.8-45.74,26.7,36.14,37.79,84.51,63.77,138.74,71.64,1.55-.84,3.1-1.69,4.65-2.53,27.56-14.97,55.14-29.92,82.72-44.86ZM163.1,217.18c-2.36.9-4.85.83-7.58.8-2.22.11-4.68-.15-7.1-.68-1.47-.32-3.03-.68-2.95-2.67.07-1.6,1.45-2.53,3.59-2.23,4.31.61,8.58.89,12.89.02,1.48-.3,2.84.22,3.25,1.75.43,1.62-.75,2.49-2.1,3.01ZM241.01,454.39c-2.63.85-5.36.72-8.95.75-1.97.07-4.79-.11-7.59-.66-1.42-.28-2.68-.78-2.69-2.51,0-1.4,1.35-2.53,3.21-2.33,5.05.52,10.07.69,15.12,0,1.49-.2,2.76.44,2.97,2.09.19,1.45-.8,2.25-2.07,2.67ZM196.09,316.56c-1.53-1.31-1.91-2.68-1-3.81,1.09-1.35,2.39-1.01,3.65-.28,3.88,2.24,7.21,5.22,10.38,8.3,11.33,11.02,19.81,23.87,24.36,39.14.39,1.3.69,2.62,1.01,3.94.09.36.08.73.11,1.02-.01,1.29-.37,2.3-1.67,2.64-1.28.33-2.17-.29-2.7-1.39-.37-.77-.63-1.61-.86-2.43-5.38-19.27-16.55-34.49-32.38-46.48-.3-.22-.62-.41-.9-.65ZM202.77,442.39c-.84-.19-1.69-.37-2.5-.66-1.83-.66-2.67-1.94-2.15-3.28.62-1.57,1.92-1.78,3.37-1.43,3.96.96,7.97,1.61,12,2.13,11.42,1.47,22.84,1.68,34.25-.08,1.1-.17,2.19-.37,3.3-.45,2.02-.16,3.18.57,3.33,2.06.17,1.72-.93,2.46-2.4,2.71-2.55.44-5.1.94-7.67,1.16-4.42.38-8.85.58-12.97.83-9.79-.38-19.26-.94-28.56-3Z"/>
    <path class="cls-5" d="M360.81,171.35c-2.21-.79-4.41-1.6-6.61-2.4-11.94-4.34-23.8-8.94-36.43-11.06-3.36-.56-6.57-.62-9.89.07-1.77.37-2.82,1.23-3.6,2.78-1.54,3.04-2.45,6.17-2.17,9.62.11,1.35-.38,2.53-1.85,2.8-1.69.3-2.43-.85-2.87-2.26-.45-1.45-.52-2.92-.17-4.39.4-1.68.86-3.34,1.3-5.01.16-.61.29-1.27-.38-1.62-.58-.3-1.21-.14-1.75.23-.77.52-1.08,1.34-1.33,2.17-.57,1.89-1.11,3.78-1.61,5.69-.37,1.41-.86,2.64-2.62,2.55-1.44-.08-2.2-1.21-2.08-3.33.08-1.34.4-2.68.7-4,.39-1.68-.3-2.32-1.92-2.15-.86.09-1.71.22-2.57.32-4.65.58-9.29,1.38-13.96,1.69-11.85.79-23.53,2.63-35.2,4.71-4.54.81-7.95,3.03-10.82,6.49-4.68,5.64-8.55,11.81-11.86,18.3-4.94,9.67-9.81,19.37-15,28.92-4.36,8.03-8.52,16.16-12.87,24.19-1.02,1.89-1.28,3.65-.5,5.64.58,1.49,1.02,3.04,1.44,4.59.4,1.52,1.19,1.96,2.72,1.43,9.95-3.42,20.19-5.68,30.51-7.6,2.15-.4,3.46-1.51,4.37-3.49,6.28-13.68,12.63-27.34,18.96-41,1.38-2.98,1.39-3.05-1.71-4.12-4.87-1.67-8.16-4.94-10.12-9.64-.43-1.03-.77-2.09-.76-3.22.01-1.2.4-2.22,1.66-2.58,1.27-.36,2.17.28,2.72,1.36.44.88.76,1.82,1.1,2.75,2.04,5.61,7.7,8.33,13.09,6.79,4.86-1.39,9.8-2.54,14.71-3.73,13.91-3.39,27.84-6.69,41.73-10.16,2.72-.68,5.25-.74,7.99-.16,9.05,1.93,18.12,3.83,29.14,3.72,2.01.03,5.73.2,9.36-.79,5.81-1.57,9.21-5.42,10.62-11.19.36-1.47-.03-2.38-1.45-2.89ZM358.62,175.33c-.31,3.8-4.93,7.54-8.66,6.84-7.28-1.38-14.39-3.46-21.48-5.58-2.07-.62-2.61-1.77-2.62-5.07.17-2.21.66-4.74,1.68-7.15.61-1.43,1.64-2.22,3.21-1.64,1.42.52,1.63,1.72,1.32,3.05-.28,1.2-.62,2.39-.89,3.59-.38,1.7.12,2.86,1.95,3.34,5.25,1.38,10.46,2.89,15.73,4.2,2.83.7,3.16.43,4.79-2.1.27-.41.47-.87.77-1.26.66-.86,1.51-1.28,2.59-.86,1.18.46,1.7,1.37,1.59,2.63Z"/>
    <path class="cls-5" d="M236.45,162.59c5.24-.81,10.46-1.77,15.71-2.53,5-.72,10.03-1.3,15.05-1.88,1.88-.22,2.89-1.36,3.33-3,.45-1.67-1.18-1.93-2.11-2.61-2.63-1.91-4.88-4.17-6.53-6.98-.69-1.17-.83-2.44.33-3.35,1.29-1,2.58-.59,3.59.58.81.93,1.5,1.96,2.31,2.9,2.79,3.26,6.2,4.72,10.54,3.77,2.9-.64,5.75-1.42,8.49-2.56,13.13-5.46,25.7-12.03,37.86-19.38,1.94-1.17,3.92-1.98,6.15-2.39,6.59-1.23,12.85-3.44,18.82-6.53,7.71-4,12.11-9.99,11.74-18.96,0-.37.02-.74,0-1.11-.33-4.45-1.18-5.13-5.48-4.26-8.34,1.7-16.68,3.43-25.02,5.15-6.33,1.3-6.21,1.26-3.84,7.34.98,2.52,2.47,3.27,5.02,3.26,6.26-.02,12.24-1.35,18.11-3.38.93-.32,1.87-.7,2.83-.78,1.04-.09,1.92.43,2.33,1.48.42,1.07.04,2-.83,2.6-.8.55-1.72.96-2.64,1.29-3.72,1.36-7.56,2.28-11.44,3.01-3.54.67-7.09.95-10.68.73-3.06-.19-5.45-1.26-6.45-4.54-.69-2.23-1.76-4.34-2.61-6.53-.51-1.32-1.23-2.07-2.78-1.64-4.51,1.24-9.21,1.68-13.49,3.81-18.78,9.35-37.75,18.3-56.13,28.46-4.17,2.3-6.98,5.5-8.58,9.76-1.99,5.31-3.68,10.74-5.41,16.15-.68,2.14-.4,2.44,1.8,2.1Z"/>
    <path class="cls-5" d="M265.11,120.18c.35-.13.68-.3,1.01-.46,11.72-5.84,23.43-11.68,35.15-17.52,1-.5,2.13-.95,2.55-2.04,1.38-3.49,4.28-5.69,6.75-8.24,5.72-5.9,10.58-12.4,14.05-19.87,1.66-3.59,3.13-7.27,2.95-10.61-.19-1.98-.22-3.23-.45-4.43-.78-4.11-3.16-6.86-7.15-8.2-2.26-.76-4.08-.32-5.53,1.67-1.97,2.7-4.42,4.98-6.7,7.41-3.12,3.33-6.23,6.68-9.3,10.07-1.61,1.78-1.42,2.19.93,2.85,2.59.73,4.83.33,6.78-1.68,3.18-3.28,6.47-6.45,9.42-9.95.87-1.03,1.8-2.04,2.84-2.9.83-.68,1.88-.62,2.73.09.87.72,1,1.7.54,2.68-.31.66-.77,1.26-1.25,1.82-3.41,4.07-6.89,8.08-10.69,11.8-3.94,3.86-8.36,4.92-13.55,2.7-3.34-1.43-3.43-1.35-5.97,1.45-6.3,6.95-12.51,13.99-18.85,20.9-5.45,5.94-7.4,13.25-8.45,20.93-.25,1.84.37,2.17,2.18,1.51Z"/>
    <path class="cls-5" d="M264.99,201.7c-.17-3.68-.59-3.96-4.34-3.09-2.53.59-5.03,1.29-7.56,1.81-2.11.43-3.39,1.54-4.31,3.55-6.19,13.46-12.49,26.87-18.76,40.29-.26.56-.54,1.11-.73,1.7-.38,1.15.11,1.64,1.27,1.5.61-.08,1.21-.22,1.82-.34,10.32-1.91,20.44-4.73,30.7-6.92,1.91-.41,2.69-1.43,2.66-3.34-.05-4.44-.02-8.89-.02-13.34.29-7.29-.4-14.56-.74-21.83Z"/>
    <path class="cls-5" d="M291.2,150.59c-4.13,1.62-8.3,3.05-12.67,3.85-.48.09-.98.22-1.38.46-.64.39-1.24.95-.94,1.78.25.71,1,.52,2,.6,4.47-.64,9.34-1.27,14.18-2.08,1.97-.33,2.69-1.86,2.1-3.88-.62-2.11-2.1-1.21-3.28-.74Z"/>
    <path class="cls-3" d="M229.37,363.69c.23.83.49,1.66.86,2.43.53,1.1,1.43,1.71,2.7,1.39,1.3-.33,1.66-1.34,1.67-2.64-.03-.28-.03-.66-.11-1.02-.32-1.32-.62-2.64-1.01-3.94-4.55-15.27-13.03-28.12-24.36-39.14-3.17-3.08-6.5-6.06-10.38-8.3-1.26-.73-2.56-1.07-3.65.28-.91,1.12-.53,2.5,1,3.81.28.24.61.42.9.65,15.83,11.98,27,27.21,32.38,46.48Z"/>
    <path class="cls-3" d="M244.3,444.55c2.57-.22,5.12-.72,7.67-1.16,1.47-.26,2.57-.99,2.4-2.71-.15-1.49-1.31-2.22-3.33-2.06-1.1.09-2.2.28-3.3.45-11.41,1.75-22.83,1.55-34.25.08-4.04-.52-8.05-1.17-12-2.13-1.45-.35-2.75-.15-3.37,1.43-.53,1.35.32,2.63,2.15,3.28.81.29,1.66.47,2.5.66,9.31,2.06,18.77,2.62,28.56,3,4.12-.26,8.56-.45,12.97-.83Z"/>
    <path class="cls-3" d="M240.11,449.63c-5.05.69-10.07.52-15.12,0-1.86-.19-3.22.94-3.21,2.33,0,1.72,1.28,2.23,2.69,2.51,2.8.55,5.62.73,7.59.66,3.59-.03,6.32.1,8.95-.75,1.27-.41,2.26-1.22,2.07-2.67-.21-1.65-1.47-2.29-2.97-2.09Z"/>
    <path class="cls-4" d="M161.96,212.42c-4.31.87-8.58.59-12.89-.02-2.14-.3-3.52.63-3.59,2.23-.08,2,1.48,2.35,2.95,2.67,2.42.53,4.87.79,7.1.68,2.73.03,5.22.1,7.58-.8,1.35-.52,2.54-1.39,2.1-3.01-.41-1.53-1.77-2.05-3.25-1.75Z"/>
    <path class="cls-4" d="M357.03,172.7c-1.08-.42-1.93,0-2.59.86-.3.39-.51.84-.77,1.26-1.64,2.54-1.97,2.81-4.79,2.1-5.27-1.31-10.48-2.82-15.73-4.2-1.83-.48-2.33-1.64-1.95-3.34.27-1.2.61-2.39.89-3.59.31-1.33.1-2.53-1.32-3.05-1.58-.58-2.61.21-3.21,1.64-1.02,2.41-1.52,4.94-1.68,7.15.02,3.3.56,4.45,2.62,5.07,7.09,2.13,14.2,4.2,21.48,5.58,3.73.71,8.35-3.04,8.66-6.84.1-1.25-.41-2.16-1.59-2.63Z"/>
  </g>
</svg>